<?xml version="1.0" encoding="UTF-8"?>
<svg width="34px" height="21px" viewBox="0 0 34 21" version="1.1" xmlns="http://www.w3.org/2000/svg" xmlns:xlink="http://www.w3.org/1999/xlink" style="background: #E0E0E0;">
    <!-- Generator: sketchtool 49.3 (51167) - http://www.bohemiancoding.com/sketch -->
    <title>2EDEF5DC-761E-4298-9452-306F2146059C</title>
    <desc>Created with sketchtool.</desc>
    <defs></defs>
    <g id="Symbols" stroke="none" stroke-width="1" fill="none" fill-rule="evenodd">
        <g id="Иконка_доставка_2" fill="#FFFFFF" fill-rule="nonzero">
            <g id="Иконка_доставка_1" transform="translate(0.000000, 1.000000)">
                <path d="M31.6199289,8.9026285 L30.7394468,5.46382687 C30.9801699,5.41389989 31.1607952,5.20537371 31.1607952,4.9555443 L31.1607952,4.40109549 C31.1607952,3.19727177 30.1577269,2.21792493 28.9248924,2.21792493 L24.9144783,2.21792493 L24.9144783,1.07427294 C24.9144783,0.481892594 24.4209461,0 23.8142574,0 L3.37158471,0 C2.76489603,0 2.27136381,0.481892594 2.27136381,1.07427294 L2.27136381,10.5000973 C2.27136381,10.787145 2.50969631,11.0199214 2.80374376,11.0199214 C3.0977248,11.0199214 3.3361237,10.7872098 3.3361237,10.5000973 L3.3361237,1.07427294 C3.3361237,1.05514507 3.35199483,1.03964826 3.37158471,1.03964826 L23.814191,1.03964826 C23.8337809,1.03964826 23.8496521,1.05514507 23.8496521,1.07427294 L23.8496521,10.5002269 C23.8496521,10.7872746 24.0879845,11.0200511 24.382032,11.0200511 C24.676013,11.0200511 24.9144119,10.7873395 24.9144119,10.5002269 L24.9144119,9.91095893 L31.1943969,9.91095893 C31.1949281,9.91095893 31.1953266,9.91108861 31.1957914,9.91108861 C31.1963226,9.91108861 31.1967875,9.91102377 31.1972523,9.91102377 C31.9700234,9.91154249 32.6261848,10.4067922 32.8515681,11.0892356 L31.1961898,11.0892356 C30.9022088,11.0892356 30.6638099,11.3219472 30.6638099,11.6090597 L30.6638099,12.7179573 C30.6638099,13.6160594 31.412077,14.3466791 32.3318717,14.3466791 L32.9352401,14.3466791 L32.9352401,16.6337886 L31.5432296,16.6337886 C31.0859552,15.3445702 29.8308083,14.4159285 28.3569187,14.4159285 C26.8830291,14.4159285 25.6278157,15.3445702 25.1706078,16.6337886 L24.9142791,16.6337886 L24.9142791,12.7178925 C24.9142791,12.4308448 24.6759466,12.1980684 24.3818992,12.1980684 C24.0879181,12.1980684 23.8495192,12.43078 23.8495192,12.7178925 L23.8495192,16.6336589 L12.8042789,16.6336589 C12.3470046,15.3444406 11.0918576,14.4157988 9.617968,14.4157988 C8.14407841,14.4157988 6.88886502,15.3444406 6.43165709,16.6336589 L3.37158471,16.6336589 C3.35199483,16.6336589 3.3361237,16.6181621 3.3361237,16.5990342 L3.3361237,15.455447 L5.64301493,15.455447 C5.93699597,15.455447 6.17539487,15.2227355 6.17539487,14.9356229 C6.17539487,14.6485104 5.93706238,14.4157988 5.64301493,14.4157988 L0.532379946,14.4157988 C0.238398903,14.4157988 0,14.6485104 0,14.9356229 C0,15.2227355 0.238332497,15.455447 0.532379946,15.455447 L2.27143022,15.455447 L2.27143022,16.5990342 C2.27143022,17.1914145 2.76496243,17.6733071 3.37165112,17.6733071 L6.24731298,17.6733071 C6.24718017,17.6848487 6.24638329,17.6963254 6.24638329,17.7079318 C6.24638329,19.5231989 7.7589214,21 9.617968,21 C11.4770146,21 12.9895527,19.5231989 12.9895527,17.7079318 C12.9895527,17.6962606 12.9887558,17.6848487 12.988623,17.6733071 L24.9862636,17.6733071 C24.9861308,17.6848487 24.985334,17.6963254 24.985334,17.7079318 C24.985334,19.5231989 26.4978721,21 28.3569187,21 C30.2159653,21 31.7285034,19.5231989 31.7285034,17.7079318 C31.7285034,17.6962606 31.7277065,17.6848487 31.7275737,17.6733071 L33.4676201,17.6733071 C33.7616011,17.6733071 34,17.4405955 34,17.153483 L34,11.60893 C34.0000664,10.2400231 32.9656542,9.10266061 31.6199289,8.9026285 Z M24.9144783,3.25750834 L28.9248924,3.25750834 C29.5706945,3.25750834 30.0961018,3.77052425 30.0961018,4.40109549 L30.0961018,4.43572017 L24.9144783,4.43572017 L24.9144783,3.25750834 Z M24.9144783,8.87137551 L24.9144783,5.47530359 L29.6449368,5.47530359 L30.5144619,8.87137551 L24.9144783,8.87137551 Z M9.617968,19.9605463 C8.3459538,19.9605463 7.31107678,18.950141 7.31107678,17.7080615 C7.31107678,16.465982 8.3459538,15.4555767 9.617968,15.4555767 C10.8899822,15.4555767 11.9248592,16.465982 11.9248592,17.7080615 C11.9248592,18.950141 10.8899822,19.9605463 9.617968,19.9605463 Z M28.3570515,19.9605463 C27.0850373,19.9605463 26.0501603,18.950141 26.0501603,17.7080615 C26.0501603,16.465982 27.0850373,15.4555767 28.3570515,15.4555767 C29.6290657,15.4555767 30.6639427,16.465982 30.6639427,17.7080615 C30.6639427,18.950141 29.6290657,19.9605463 28.3570515,19.9605463 Z M32.9353729,13.3070308 L32.3320046,13.3070308 C31.9993086,13.3070308 31.7286362,13.0427421 31.7286362,12.7178925 L31.7286362,12.1287542 L32.9353065,12.1287542 L32.9353065,13.3070308 L32.9353729,13.3070308 Z" id="Shape"></path>
                <path d="M9.5,16.6046512 C8.94857557,16.6046512 8.5,17.0427947 8.5,17.5813953 C8.5,18.119996 8.94857557,18.5581395 9.5,18.5581395 C10.0514244,18.5581395 10.5,18.119996 10.5,17.5813953 C10.5,17.0427947 10.0514244,16.6046512 9.5,16.6046512 Z" id="Shape"></path>
                <path d="M28.5,16.6046512 C27.9485756,16.6046512 27.5,17.0427947 27.5,17.5813953 C27.5,18.119996 27.9485756,18.5581395 28.5,18.5581395 C29.0514244,18.5581395 29.5,18.119996 29.5,17.5813953 C29.5,17.0427947 29.0514244,16.6046512 28.5,16.6046512 Z" id="Shape"></path>
                <path d="M21.9684862,14.6511628 L14.0315138,14.6511628 C13.738011,14.6511628 13.5,14.8697941 13.5,15.1395349 C13.5,15.4092756 13.7379448,15.627907 14.0315138,15.627907 L21.9684862,15.627907 C22.261989,15.627907 22.5,15.4092756 22.5,15.1395349 C22.5,14.8697941 22.2620552,14.6511628 21.9684862,14.6511628 Z" id="Shape"></path>
                <path d="M8.45944306,12.2093023 L1.54055694,12.2093023 C1.24206055,12.2093023 1,12.4279337 1,12.6976744 C1,12.9674152 1.24199312,13.1860465 1.54055694,13.1860465 L8.45944306,13.1860465 C8.75793945,13.1860465 9,12.9674152 9,12.6976744 C9,12.4279337 8.75793945,12.2093023 8.45944306,12.2093023 Z" id="Shape"></path>
                <path d="M18.3443714,5.03165307 C18.1368554,4.83439971 17.8002553,4.83439971 17.5927394,5.03171609 L12.8661501,9.52449226 L10.4073186,7.1872605 C10.1997364,6.98994411 9.86320257,6.98994411 9.65568666,7.1872605 C9.44810445,7.38457688 9.44810445,7.70440461 9.65568666,7.90172099 L12.4903673,10.5962145 C12.5941253,10.6949042 12.7301708,10.744186 12.8661501,10.744186 C13.0021294,10.744186 13.1382413,10.6949042 13.2419329,10.5962145 L18.3443051,5.74617659 C18.5518873,5.54879719 18.5518873,5.22896946 18.3443714,5.03165307 Z" id="Shape"></path>
            </g>
        </g>
    </g>
</svg>