<?xml version="1.0" encoding="UTF-8"?>
<svg width="58px" height="48px" viewBox="0 0 58 48" version="1.1" xmlns="http://www.w3.org/2000/svg" xmlns:xlink="http://www.w3.org/1999/xlink">
    <!-- Generator: sketchtool 49.3 (51167) - http://www.bohemiancoding.com/sketch -->
    <title>F22A2D4C-1A07-44B0-A875-F8F5FFBF4A15</title>
    <desc>Created with sketchtool.</desc>
    <defs></defs>
    <g id="Symbols" stroke="none" stroke-width="1" fill="none" fill-rule="evenodd">
        <g id="Иконка_оплата_1" fill="#062294" fill-rule="nonzero">
            <g id="Shape">
                <path d="M30.8730721,33.1076309 L46.3095517,33.1076309 C46.8884211,33.1076309 47.2742963,32.7181857 47.2742963,32.1339609 L47.2742963,23.3705891 C47.2742963,22.7863643 46.8884211,22.3969191 46.3095517,22.3969191 L30.8730721,22.3969191 C30.2942027,22.3969191 29.9083275,22.7863643 29.9083275,23.3705891 L29.9083275,32.1339609 C29.9082144,32.7180716 30.2942027,33.1076309 30.8730721,33.1076309 Z M31.8378168,24.344259 L45.344807,24.344259 L45.344807,31.1601769 L31.8378168,31.1601769 L31.8378168,24.344259 Z"></path>
                <path d="M4.82394932,20.449351 L12.5422456,20.449351 C13.121115,20.449351 13.5069903,20.0599059 13.5069903,19.4756811 C13.5069903,18.8914563 13.121115,18.5020111 12.5422456,18.5020111 L4.82394932,18.5020111 C4.24507992,18.5020111 3.85920468,18.8914563 3.85920468,19.4756811 C3.85920468,20.0599059 4.24507992,20.449351 4.82394932,20.449351 Z"></path>
                <path d="M16.4013372,20.449351 L24.1196335,20.449351 C24.6985029,20.449351 25.0843782,20.0599059 25.0843782,19.4756811 C25.0843782,18.8914563 24.6985029,18.5020111 24.1196335,18.5020111 L16.4013372,18.5020111 C15.8224678,18.5020111 15.4365926,18.8914563 15.4365926,19.4756811 C15.4365926,20.0599059 15.8224678,20.449351 16.4013372,20.449351 Z"></path>
                <path d="M4.82394932,24.344259 L17.3660819,24.344259 C17.9449513,24.344259 18.3308265,23.9548139 18.3308265,23.3705891 C18.3308265,22.7863643 17.9449513,22.3969191 17.3660819,22.3969191 L4.82394932,22.3969191 C4.24507992,22.3969191 3.85920468,22.7863643 3.85920468,23.3705891 C3.85920468,23.9548139 4.24507992,24.344259 4.82394932,24.344259 Z"></path>
                <path d="M24.1195205,22.396805 L21.2251735,22.396805 C20.6463041,22.396805 20.2604288,22.7862502 20.2604288,23.370475 C20.2604288,23.9546998 20.6463041,24.3441449 21.2251735,24.3441449 L24.1195205,24.3441449 C24.6983899,24.3441449 25.0842651,23.9546998 25.0842651,23.370475 C25.0842651,22.7862502 24.6983899,22.396805 24.1195205,22.396805 Z"></path>
                <path d="M57.0186355,10.3228641 C56.3433255,9.44652689 55.4750214,8.95963486 54.4137232,8.8623021 L52.0982456,8.57909 L52.0982456,5.84373128 L52.0982456,3.89639138 C52.0982456,1.75427186 50.3616374,0.00159748966 48.239154,0.00159748966 L3.85909162,0.00159748966 C1.73660819,0.00148338325 0,1.75415775 0,3.89639138 L0,5.84384539 L0,13.6335473 L0,35.0550849 C0,36.8138069 1.17096686,38.3091713 2.76466667,38.7884182 C2.71605068,40.7581229 4.19273294,42.4681215 6.17468226,42.6500071 L50.7476257,47.7132506 C50.8440663,47.7132506 51.0370604,47.7132506 51.133501,47.7132506 C53.0631033,47.7132506 54.7997115,46.2526886 54.9925926,44.4026815 L57.8869396,13.1466553 C57.9833801,12.1728712 57.6939454,11.1017544 57.0186355,10.3228641 Z M1.92960234,6.81751533 L50.1687563,6.81751533 L50.1687563,9.34919412 L50.1687563,12.6597632 L1.92960234,12.6597632 L1.92960234,6.81751533 Z M3.85909162,1.94893738 L48.2390409,1.94893738 C49.3003392,1.94893738 50.1686433,2.82527457 50.1686433,3.89639138 L50.1686433,4.87006133 L1.92960234,4.87006133 L1.92960234,3.89639138 C1.92960234,2.82527457 2.79790643,1.94893738 3.85909162,1.94893738 Z M1.92960234,35.0549708 L1.92960234,14.6071031 L50.1687563,14.6071031 L50.1687563,35.0549708 C50.1687563,36.1260876 49.3004522,37.0024248 48.239154,37.0024248 L3.95564522,37.0024248 L3.85920468,37.0024248 C2.79790643,37.0024248 1.92960234,36.1260876 1.92960234,35.0549708 Z M55.9573372,12.757096 L53.0629903,44.0131222 C52.9665497,45.0842391 52.001692,45.8631294 50.9405068,45.7657966 L6.4640039,40.7025531 C5.49925926,40.6052204 4.82383626,39.8262159 4.72739571,38.9498788 L48.2390409,38.9498788 C50.3615244,38.9498788 52.0981326,37.1972044 52.0981326,35.0550849 L52.0981326,13.6334332 L52.0981326,10.4201968 L54.3171696,10.6149765 C54.7995984,10.6149765 55.2819142,10.9070889 55.5713489,11.296534 C55.8608967,11.6859792 56.0538908,12.270204 55.9573372,12.757096 Z"></path>
            </g>
        </g>
    </g>
</svg>