<?xml version="1.0" encoding="UTF-8"?>
<svg width="49px" height="57px" viewBox="0 0 49 57" version="1.1" xmlns="http://www.w3.org/2000/svg" xmlns:xlink="http://www.w3.org/1999/xlink">
    <!-- Generator: sketchtool 49.3 (51167) - http://www.bohemiancoding.com/sketch -->
    <title>1254CD26-272D-48E6-9DF8-F732139AA671</title>
    <desc>Created with sketchtool.</desc>
    <defs></defs>
    <g id="Symbols" stroke="none" stroke-width="1" fill="none" fill-rule="evenodd">
        <g id="Иконка_качество_1" fill="#062294" fill-rule="nonzero">
            <g id="Shape">
                <path d="M48.2180974,49.8871795 L39.5019667,34.7846154 C42.9105094,31.0820513 44.9556351,26.1615385 44.9556351,20.7538462 C44.9556351,15.0051282 42.6183486,9.84102564 38.8689516,6.08974359 C35.1195546,2.33846154 29.9580471,2.84217094e-14 24.212218,2.84217094e-14 C18.4663888,2.84217094e-14 13.3048813,2.33846154 9.5554843,6.08974359 C5.80608731,9.84102564 3.46880088,15.0051282 3.46880088,20.7538462 C3.46880088,26.1615385 5.51392651,31.0820513 8.92246922,34.7846154 L0.206338568,49.8871795 C0.0602581658,50.1307692 0.0115646985,50.4717949 0.108951633,50.8128205 C0.303725503,51.3487179 0.888047111,51.5923077 1.42367525,51.3974359 L8.38684108,48.6205128 L9.45809736,56.074359 C9.50679083,56.3666667 9.65287123,56.6589744 9.94503204,56.8051282 C10.4319667,57.0974359 11.0649818,56.9025641 11.3571426,56.4153846 L20.1706602,41.1666667 C21.4366903,41.4102564 22.8001074,41.5564103 24.114831,41.5564103 C25.4782481,41.5564103 26.7929717,41.4102564 28.0590019,41.1666667 L36.8725195,56.4153846 C37.1646803,56.9025641 37.7976954,57.0487179 38.28463,56.8051282 C38.5767908,56.6589744 38.7228712,56.3666667 38.7715647,56.074359 L39.842821,48.6205128 L46.8059868,51.3974359 C47.3416149,51.5923077 47.9259366,51.3487179 48.1207104,50.8128205 C48.4128712,50.4717949 48.3641778,50.1307692 48.2180974,49.8871795 Z M11.1623687,52.8102564 L10.2858863,47.0128205 C10.1884994,46.4769231 9.7015647,46.0871795 9.11724309,46.1358974 C9.01985616,46.1358974 8.92246922,46.1846154 8.82508229,46.2333333 L3.42010741,48.3769231 L10.4319667,36.2461538 C12.6231727,38.1948718 15.25262,39.7051282 18.174228,40.5820513 L11.1623687,52.8102564 Z M24.212218,39.4615385 C19.0507104,39.4615385 14.3761376,37.3666667 11.0162883,34.0051282 C7.65643907,30.6435897 5.56261997,25.9666667 5.56261997,20.8025641 C5.56261997,15.6384615 7.65643907,10.9615385 11.0162883,7.6 C14.3761376,4.14102564 19.0507104,2.04615385 24.212218,2.04615385 C29.3737255,2.04615385 34.0482984,4.14102564 37.4081476,7.5025641 C40.7679969,10.8641026 42.861816,15.5410256 42.861816,20.7051282 C42.861816,25.8692308 40.7679969,30.5461538 37.4081476,33.9076923 C34.0482984,37.3666667 29.3737255,39.4615385 24.212218,39.4615385 Z M39.5993536,46.2333333 C39.5019667,46.1846154 39.4045798,46.1358974 39.3071928,46.1358974 C38.7715647,46.0384615 38.2359366,46.4282051 38.1385496,47.0128205 L37.2620672,52.8102564 L30.2502079,40.5820513 C33.171816,39.7051282 35.8012632,38.1948718 37.9924692,36.2461538 L45.0043285,48.3769231 L39.5993536,46.2333333 Z"></path>
                <path d="M33.7561376,17.1487179 C33.5126702,16.8076923 33.2205094,16.5641026 32.8796552,16.4179487 C32.5388009,16.2717949 32.1492531,16.174359 31.7597054,16.2230769 L27.7181476,16.2230769 L26.4521175,12.2282051 C26.2573436,11.6435897 25.8191024,11.1564103 25.3321677,10.8641026 C24.9913134,10.7179487 24.6504592,10.6205128 24.2609114,10.6205128 C23.8713637,10.6205128 23.5305094,10.7179487 23.1896552,10.8641026 C22.654027,11.1564103 22.2644793,11.5948718 22.0697054,12.2282051 L20.8036753,16.2230769 L16.7621175,16.2230769 C16.3725697,16.174359 15.983022,16.2717949 15.6421677,16.4179487 C15.3013134,16.5641026 15.0091526,16.8076923 14.7656853,17.1487179 C14.3761376,17.6846154 14.2787506,18.2692308 14.3761376,18.8538462 C14.4735245,19.4384615 14.7656853,19.974359 15.3013134,20.3641026 L18.7098562,22.8 L17.3951325,26.7948718 C17.3951325,26.8435897 17.3951325,26.8923077 17.3464391,26.8923077 C17.2490521,27.1846154 17.2490521,27.525641 17.2977456,27.8666667 C17.3464391,28.2076923 17.4925195,28.5487179 17.7359868,28.8410256 C18.1255345,29.3769231 18.6611627,29.6692308 19.2454843,29.7666667 C19.8298059,29.8641026 20.462821,29.7179487 20.9497557,29.3282051 L24.3582984,26.8435897 L27.7668411,29.3282051 C28.3024692,29.7179487 28.8867908,29.8153846 29.4711124,29.7666667 C30.055434,29.6692308 30.5910622,29.3769231 30.9806099,28.8410256 C31.2240773,28.5487179 31.3214642,28.2076923 31.4188511,27.8666667 C31.4675446,27.525641 31.4675446,27.2333333 31.3701577,26.8923077 C31.3701577,26.8435897 31.3701577,26.7948718 31.3214642,26.7948718 L30.0067406,22.8 L33.4152833,20.3641026 C33.9509114,19.974359 34.2430722,19.4384615 34.3404592,18.8538462 C34.2917657,18.3179487 34.1456853,17.6846154 33.7561376,17.1487179 Z M32.0518662,18.7076923 L32.0031727,18.7564103 L28.0590019,21.6307692 C27.7181476,21.874359 27.5233737,22.3615385 27.6694541,22.7512821 L29.1789516,27.3794872 L29.1789516,27.4282051 C29.1789516,27.4769231 29.1789516,27.525641 29.1789516,27.574359 C29.1789516,27.6230769 29.1789516,27.6717949 29.1302582,27.6717949 C29.0815647,27.7205128 29.0328712,27.7692308 28.9354843,27.7692308 C28.8867908,27.7692308 28.7894039,27.7692308 28.7407104,27.7205128 L24.7478461,24.7974359 C24.5530722,24.6512821 24.3582984,24.6025641 24.114831,24.6025641 C23.9200572,24.6025641 23.6765898,24.6512821 23.481816,24.7974359 L19.4889516,27.7205128 C19.4402582,27.7692308 19.3428712,27.7692308 19.2941778,27.7692308 C19.2454843,27.7692308 19.1480974,27.7205128 19.0994039,27.6717949 C19.0507104,27.6230769 19.0507104,27.574359 19.0507104,27.574359 C19.0507104,27.525641 19.0507104,27.4769231 19.0507104,27.4282051 L19.0507104,27.3794872 L20.5602079,22.7512821 C20.7062883,22.3128205 20.5602079,21.874359 20.1706602,21.6307692 L16.4212632,18.7564103 L16.3725697,18.7076923 C16.3238763,18.6589744 16.2751828,18.6102564 16.2751828,18.5615385 C16.2751828,18.5128205 16.2751828,18.4153846 16.3238763,18.3666667 C16.3238763,18.3666667 16.3238763,18.3179487 16.3725697,18.3179487 C16.4212632,18.2692308 16.4212632,18.2692308 16.4699567,18.2692308 C16.5186501,18.2692308 16.5673436,18.2205128 16.6160371,18.2205128 C16.6647305,18.2205128 16.713424,18.2205128 16.7621175,18.2205128 L21.5340773,18.2205128 C21.9723185,18.2205128 22.3618662,17.9282051 22.5079466,17.4897436 L24.0174441,12.8128205 C24.0174441,12.7641026 24.0661376,12.6666667 24.1635245,12.6666667 C24.212218,12.6666667 24.2609114,12.6179487 24.2609114,12.6179487 C24.3096049,12.6179487 24.3582984,12.6179487 24.3582984,12.6666667 C24.4069918,12.7153846 24.4556853,12.7641026 24.5043788,12.8128205 L26.0138763,17.4897436 C26.1599567,17.8794872 26.5495044,18.2205128 26.9877456,18.2205128 L31.7597054,18.2205128 C31.8083989,18.2205128 31.8570923,18.2205128 31.9057858,18.2205128 C31.9544793,18.2205128 32.0031727,18.2205128 32.0518662,18.2692308 C32.1005597,18.2692308 32.1005597,18.3179487 32.1492531,18.3179487 C32.1492531,18.3179487 32.1492531,18.3666667 32.1979466,18.3666667 C32.2466401,18.4153846 32.2466401,18.4641026 32.2466401,18.5615385 C32.1492531,18.6102564 32.1005597,18.6589744 32.0518662,18.7076923 Z"></path>
                <path d="M35.6551828,9.30512821 C32.7335747,6.38205128 28.692017,4.57948718 24.212218,4.57948718 C19.732419,4.57948718 15.6908612,6.38205128 12.7692531,9.30512821 C9.8476451,12.2282051 8.04598681,16.2717949 8.04598681,20.7538462 C8.04598681,25.2358974 9.8476451,29.2794872 12.7692531,32.2025641 C15.6908612,35.125641 19.732419,36.9282051 24.212218,36.9282051 C28.692017,36.9282051 32.7335747,35.125641 35.6551828,32.2025641 C38.5767908,29.2794872 40.3784491,25.2358974 40.3784491,20.7538462 C40.3784491,16.2717949 38.5767908,12.2282051 35.6551828,9.30512821 Z M34.2430722,30.7410256 C31.6623185,33.3230769 28.1076954,34.8820513 24.212218,34.8820513 C20.3167406,34.8820513 16.7621175,33.274359 14.2300572,30.7410256 C11.6493034,28.1589744 10.0911124,24.6512821 10.0911124,20.7538462 C10.0911124,16.8564103 11.6979969,13.3 14.2300572,10.7666667 C16.7621175,8.18461538 20.3167406,6.57692308 24.212218,6.57692308 C28.1076954,6.57692308 31.6623185,8.18461538 34.1943788,10.7179487 C36.7751325,13.3 38.3333235,16.8076923 38.3333235,20.7051282 C38.3333235,24.6025641 36.7751325,28.2076923 34.2430722,30.7410256 Z"></path>
            </g>
        </g>
    </g>
</svg>