<?xml version="1.0" encoding="UTF-8"?>
<svg width="48px" height="57px" viewBox="0 0 48 57" version="1.1" xmlns="http://www.w3.org/2000/svg" xmlns:xlink="http://www.w3.org/1999/xlink">
    <!-- Generator: sketchtool 49.3 (51167) - http://www.bohemiancoding.com/sketch -->
    <title>0F8459A9-3328-43DC-8D67-4809D5D57857</title>
    <desc>Created with sketchtool.</desc>
    <defs></defs>
    <g id="Symbols" stroke="none" stroke-width="1" fill="none" fill-rule="evenodd">
        <g id="Футер" transform="translate(-681.000000, -142.000000)" fill="#062294">
            <g id="Преимущества">
                <g transform="translate(310.000000, 55.000000)" id="Самовывоз">
                    <g transform="translate(270.000000, 15.000000)">
                        <g id="Group-3" transform="translate(70.000000, 72.000000)">
                            <g id="Иконка_самовывоз_1" transform="translate(31.000000, 0.000000)">
                                <g id="Shape">
                                    <path d="M44.3076923,40.4516129 C44.3076923,39.0826935 43.692,37.8654677 42.7356923,37.0224194 C43.1427692,36.4331129 43.3846154,35.7206129 43.3846154,34.9529516 L43.3846154,34.4610968 C43.3846154,34.0666935 43.3209231,33.6778065 43.1953846,33.303629 L39.2713846,21.5772581 C38.2643077,18.569129 35.4489231,16.5483871 32.2661538,16.5483871 L29.2107692,16.5483871 C31.0966154,15.0305323 32.3076923,12.711 32.3076923,10.1129032 L32.3076923,7.12867742 C32.3076923,3.19751613 29.0963077,0 25.1501538,0 L22.8498462,0 C18.9027692,0 15.6923077,3.19751613 15.6923077,7.12867742 L15.6923077,10.1129032 C15.6923077,12.711 16.9033846,15.0305323 18.7892308,16.5483871 L15.7338462,16.5483871 C12.5510769,16.5483871 9.73569231,18.569129 8.72861538,21.5772581 L4.80461538,33.3027097 C4.67907692,33.6768871 4.61538462,34.0666935 4.61538462,34.4601774 L4.61538462,34.9520323 C4.61538462,35.7206129 4.85630769,36.4331129 5.26430769,37.0224194 C4.308,37.8654677 3.69230769,39.0826935 3.69230769,40.4516129 L0,40.4516129 L0,55.1612903 L14.7692308,55.1612903 L14.7692308,57 L23.0769231,57 L24,57 L33.2307692,57 L33.2307692,55.1612903 L48,55.1612903 L48,40.4516129 L44.3076923,40.4516129 Z M42.4615385,40.4516129 L36.9230769,40.4516129 C36.9230769,39.5368548 37.3781538,38.7296613 38.0686154,38.2276935 C38.5670769,38.475 39.1246154,38.6129032 39.7098462,38.6129032 C40.2886154,38.6129032 40.8295385,38.4667258 41.3169231,38.2286129 C42.0073846,38.7305806 42.4615385,39.5368548 42.4615385,40.4516129 Z M41.4443077,33.8855806 C41.5070769,34.0712903 41.5384615,34.2652742 41.5384615,34.4601774 L41.5384615,34.9520323 C41.5384615,35.3896452 41.376,35.7868065 41.1166154,36.1012258 C40.6652308,35.9550484 40.1926154,35.8548387 39.6923077,35.8548387 C39.1984615,35.8548387 38.7323077,35.9532097 38.2855385,36.096629 C38.1738462,35.9578065 38.0806154,35.8015161 38.0113846,35.6295968 L34.5572308,27.0290323 L38.4941538,25.0689677 L41.4443077,33.8855806 Z M36.6738462,37.0021935 C35.7036923,37.8452419 35.0769231,39.0716613 35.0769231,40.4516129 L33.2307692,40.4516129 L33.2307692,28.6783548 L36.2963077,36.3126774 C36.396,36.5609032 36.528,36.7870645 36.6738462,37.0021935 Z M17.5384615,7.12775806 C17.5384615,4.21156452 19.9209231,1.83870968 22.8498462,1.83870968 L25.1501538,1.83870968 C28.0790769,1.83870968 30.4615385,4.21156452 30.4615385,7.12867742 L30.4615385,7.48446774 C29.9603077,7.06340323 29.5098462,6.57430645 29.1304615,6.00706452 C28.5396923,5.12356452 27.552,4.59677419 26.4858462,4.59677419 L21.5132308,4.59677419 C20.448,4.59677419 19.4593846,5.12356452 18.8381538,6.05395161 C18.4772308,6.5936129 18.0341538,7.07167742 17.5384615,7.48630645 L17.5384615,7.12775806 Z M17.5384615,10.1129032 L17.5384615,9.7185 C18.6673846,9.05564516 19.6495385,8.15559677 20.4073846,7.02479032 C20.6538462,6.65612903 21.0673846,6.43548387 21.5141538,6.43548387 L26.4867692,6.43548387 C26.9326154,6.43548387 27.3470769,6.65612903 27.6258462,7.07351613 C28.3541538,8.1611129 29.3335385,9.05656452 30.4615385,9.7185 L30.4615385,10.1129032 C30.4615385,13.6606935 27.5621538,16.5483871 24,16.5483871 C20.4378462,16.5483871 17.5384615,13.6606935 17.5384615,10.1129032 Z M27.4652308,18.3870968 C26.9556923,19.4553871 25.6024615,20.2258065 24,20.2258065 C22.3975385,20.2258065 21.0443077,19.4553871 20.5347692,18.3870968 L24,18.3870968 L27.4652308,18.3870968 Z M6.46153846,34.4610968 C6.46153846,34.2652742 6.49292308,34.0712903 6.55569231,33.8855806 L9.50584615,25.0689677 L13.4427692,27.0299516 L9.98861538,35.6295968 C9.91938462,35.8015161 9.82615385,35.9587258 9.71353846,36.0975484 C9.26769231,35.9532097 8.80153846,35.8548387 8.30769231,35.8548387 C7.80738462,35.8548387 7.33476923,35.9550484 6.88338462,36.1021452 C6.624,35.7877258 6.46153846,35.3905645 6.46153846,34.9529516 L6.46153846,34.4610968 Z M6.68307692,38.2286129 C7.17138462,38.4667258 7.71138462,38.6129032 8.29015385,38.6129032 C8.87538462,38.6129032 9.43292308,38.475 9.93046154,38.2276935 C10.6218462,38.7296613 11.0769231,39.5368548 11.0769231,40.4516129 L5.53846154,40.4516129 C5.53846154,39.5368548 5.99261538,38.7305806 6.68307692,38.2286129 Z M14.7692308,53.3225806 L1.84615385,53.3225806 L1.84615385,42.2903226 L3.69230769,42.2903226 L3.69230769,44.1290323 L5.53846154,44.1290323 L5.53846154,42.2903226 L11.0769231,42.2903226 L11.0769231,44.1290323 L12.9230769,44.1290323 L12.9230769,42.2903226 L14.7692308,42.2903226 L14.7692308,53.3225806 Z M14.7692308,40.4516129 L12.9230769,40.4516129 C12.9230769,39.0707419 12.2963077,37.8452419 11.3252308,37.0021935 C11.4710769,36.7870645 11.6030769,36.5609032 11.7036923,36.3117581 L14.7692308,28.6774355 L14.7692308,40.4516129 Z M23.0769231,55.1612903 L16.6153846,55.1612903 L16.6153846,53.3225806 L23.0769231,53.3225806 L23.0769231,55.1612903 Z M31.3846154,55.1612903 L24.9230769,55.1612903 L24.9230769,53.3225806 L31.3846154,53.3225806 L31.3846154,55.1612903 Z M31.3846154,51.483871 L24.9230769,51.483871 L24.9230769,41.3709677 L23.0769231,41.3709677 L23.0769231,51.483871 L16.6153846,51.483871 L16.6153846,42.1974677 C18.7190769,41.7699677 20.3076923,39.912871 20.3076923,37.6935484 L27.6923077,37.6935484 C27.6923077,39.912871 29.2809231,41.7699677 31.3846154,42.1974677 L31.3846154,51.483871 Z M16.6153846,40.2824516 L16.6153846,37.6935484 L18.4615385,37.6935484 C18.4615385,38.8905484 17.6870769,39.9018387 16.6153846,40.2824516 Z M31.3846154,40.2824516 C30.312,39.9018387 29.5384615,38.8905484 29.5384615,37.6935484 L31.3846154,37.6935484 L31.3846154,40.2824516 Z M31.3846154,22.983871 L31.3846154,35.8548387 L16.6153846,35.8548387 L16.6153846,22.983871 L14.7692308,22.983871 L14.7692308,23.7257903 L14.1304615,25.3153548 L10.0947692,23.3056452 L10.4787692,22.1582903 C11.2347692,19.9021935 13.3467692,18.3870968 15.7338462,18.3870968 L18.5732308,18.3870968 C19.0873846,20.4823065 21.3249231,22.0645161 24,22.0645161 C26.6750769,22.0645161 28.9116923,20.4823065 29.4267692,18.3870968 L32.2661538,18.3870968 C34.6532308,18.3870968 36.7652308,19.9021935 37.5203077,22.1592097 L37.9043077,23.3065645 L33.8686154,25.3162742 L33.2307692,23.7257903 L33.2307692,22.983871 L31.3846154,22.983871 Z M46.1538462,53.3225806 L33.2307692,53.3225806 L33.2307692,42.2903226 L35.0769231,42.2903226 L35.0769231,44.1290323 L36.9230769,44.1290323 L36.9230769,42.2903226 L42.4615385,42.2903226 L42.4615385,44.1290323 L44.3076923,44.1290323 L44.3076923,42.2903226 L46.1538462,42.2903226 L46.1538462,53.3225806 Z" fill-rule="nonzero"></path>
                                </g>
                            </g>
                        </g>
                    </g>
                </g>
            </g>
        </g>
    </g>
</svg>