<?xml version="1.0" encoding="UTF-8"?>
<svg width="45px" height="57px" viewBox="0 0 45 57" version="1.1" xmlns="http://www.w3.org/2000/svg" xmlns:xlink="http://www.w3.org/1999/xlink">
    <!-- Generator: sketchtool 49.3 (51167) - http://www.bohemiancoding.com/sketch -->
    <title>9326CBBE-835C-4DFD-A656-D9E48A3E045F</title>
    <desc>Created with sketchtool.</desc>
    <defs></defs>
    <g id="Symbols" stroke="none" stroke-width="1" fill="none" fill-rule="evenodd">
        <g id="Иконка_скорость_1" fill="#062294" fill-rule="nonzero">
            <g id="Shape">
                <path d="M20.6586395,11.5713441 C11.3281911,11.5713441 3.72573097,19.1704648 3.72573097,28.4965594 C3.72573097,37.8226539 11.3283058,45.4217746 20.6586395,45.4217746 C29.9889732,45.4217746 37.5052634,37.8226539 37.5052634,28.4965594 C37.5052634,19.1704648 29.989088,11.5713441 20.6586395,11.5713441 Z M20.6586395,43.6948008 C12.2785847,43.6948008 5.45348981,36.8729215 5.45348981,28.4965594 C5.45348981,20.1201972 12.2784699,13.2983179 20.6586395,13.2983179 C29.0386944,13.2983179 35.7773899,20.1201972 35.7773899,28.4965594 C35.7773899,36.8729215 29.0386944,43.6948008 20.6586395,43.6948008 Z"></path>
                <path d="M43.1207665,26.510505 C42.60237,26.510505 42.2568871,26.8559457 42.2568871,27.373992 L42.2568871,27.6330724 L41.1338094,27.6330724 C40.7882118,20.0339517 36.2957864,13.4711529 29.8164039,10.1896962 L28.0020162,0.690881288 C27.9156168,0.259080483 27.5700191,0 27.1381368,0 L14.0928577,0 C13.6608606,0 13.3153777,0.259080483 13.2289782,0.6907666 L11.4147053,10.1896962 C4.76240922,13.5575131 0.0972997403,20.4657525 0.0972997403,28.496674 C0.0972997403,36.5275956 4.67612455,43.435835 11.4147053,46.8036519 L13.2289782,56.3024668 C13.3153777,56.7342676 13.6609753,56.9933481 14.0928577,56.9933481 L27.2245362,56.9933481 C27.6565332,56.9933481 28.0020162,56.7342676 28.0884156,56.3024668 L29.9026886,46.8036519 C36.3821858,43.5221952 40.8746112,36.9593964 41.2200941,29.3602757 L42.3431718,29.3602757 L42.3431718,29.6193561 C42.3431718,30.1375171 42.6887694,30.4828431 43.2070512,30.4828431 C43.7253329,30.4828431 44.0709306,30.1374024 44.0709306,29.6193561 L44.0709306,27.4604668 C43.9846459,26.9423058 43.5527636,26.510505 43.1207665,26.510505 Z M14.7839382,1.72708853 L26.4469414,1.72708853 L27.9156168,9.32620926 C25.6694614,8.46272233 23.1639931,7.94456137 20.6586395,7.94456137 C18.0668866,7.94456137 15.6478177,8.46272233 13.4016623,9.32620926 L14.7839382,1.72708853 Z M26.4469414,55.2661449 L14.7839382,55.2661449 L13.3152629,47.6670241 C15.5614182,48.5305111 18.0668866,49.048672 20.5722401,49.048672 C23.1639931,49.048672 25.583062,48.5305111 27.8292173,47.6670241 L26.4469414,55.2661449 Z M20.6586395,47.235338 C10.2915129,47.235338 1.91145799,38.7727304 1.91145799,28.496674 C1.91145799,18.2206177 10.3779123,9.75789537 20.6586395,9.75789537 C30.9393668,9.75789537 39.4058211,18.1341429 39.4058211,28.4965594 C39.4058211,38.8589759 31.0257662,47.235338 20.6586395,47.235338 Z"></path>
                <path d="M23.5095908,27.6330724 C23.2503925,26.6832254 22.4729125,25.9059839 21.4361195,25.5605433 L21.4361195,16.5797746 C21.4361195,16.0616137 21.0905219,15.7162877 20.5722401,15.7162877 C20.0539584,15.7162877 19.7083607,16.0617284 19.7083607,16.5797746 L19.7083607,25.5605433 C18.4124842,25.9059839 17.5484901,27.1149115 17.5484901,28.4965594 C17.5484901,30.1372877 18.930766,31.5189356 20.5722401,31.5189356 C21.954516,31.5189356 23.0775937,30.5690885 23.5095908,29.3600463 L31.1121656,29.3600463 C31.6305621,29.3600463 31.9760451,29.0146056 31.9760451,28.4965594 C31.9760451,27.9785131 31.6304474,27.6330724 31.1121656,27.6330724 L23.5095908,27.6330724 Z M20.6586395,29.7919618 C19.967559,29.7919618 19.3627631,29.1874406 19.3627631,28.496674 C19.3627631,27.8059074 19.967559,27.2013863 20.6586395,27.2013863 C21.3498349,27.2013863 21.954516,27.8059074 21.954516,28.496674 C21.954516,29.1874406 21.3498349,29.7919618 20.6586395,29.7919618 Z"></path>
                <path d="M22.8185102,37.9091288 L18.4124842,37.9091288 C17.8940877,37.9091288 17.5486048,38.2545694 17.5486048,38.7726157 C17.5486048,39.290662 17.8942025,39.6361026 18.4124842,39.6361026 L22.8185102,39.6361026 C23.3369067,39.6361026 23.6823896,39.290662 23.6823896,38.7726157 C23.6823896,38.2545694 23.3367919,37.9091288 22.8185102,37.9091288 Z"></path>
            </g>
        </g>
    </g>
</svg>