<?xml version="1.0" encoding="UTF-8"?>
<svg width="19px" height="25px" viewBox="0 0 19 25" version="1.1" xmlns="http://www.w3.org/2000/svg" xmlns:xlink="http://www.w3.org/1999/xlink">
    <!-- Generator: sketchtool 49.3 (51167) - http://www.bohemiancoding.com/sketch -->
    <title>A661A49D-1595-47BD-88B6-905AC0FD89FF</title>
    <desc>Created with sketchtool.</desc>
    <defs></defs>
    <g id="Symbols" stroke="none" stroke-width="1" fill="none" fill-rule="evenodd">
        <g id="Купить_static" transform="translate(-185.000000, -18.000000)" fill="#FFFFFF">
            <g id="Group-2">
                <g transform="translate(47.000000, 14.000000)">
                    <g id="1_Корзина_active" transform="translate(138.000000, 4.000000)">
                        <g id="001-shopping-bag-copy">
                            <path d="M18.6138486,25 L0.386144936,25 C0.280443543,25 0.179371409,24.9567919 0.106846365,24.8804061 C0.0343213223,24.8040203 -0.00425582828,24.701401 0.000373429797,24.5956954 L0.868359319,6.36726904 C0.878389378,6.16125888 1.0473573,6 1.25413082,6 L17.7458627,6 C17.9518647,6 18.1216042,6.16125888 18.1316342,6.36726904 L18.9996201,24.5956954 C19.0042494,24.701401 18.9664438,24.8040203 18.8931472,24.8804061 C18.8198506,24.9567919 18.7187785,25 18.6138486,25 Z M0.790433474,24.2284264 L18.2087885,24.2284264 L17.3778367,6.7715736 L1.6213853,6.7715736 L0.790433474,24.2284264 Z" id="Shape" fill-rule="nonzero"></path>
                            <path d="M13.618967,9 C13.4086367,9 13.237934,8.82276923 13.237934,8.6043956 L13.237934,4.67208791 C13.237934,2.53265934 11.5613887,0.791208791 9.5,0.791208791 C7.43861135,0.791208791 5.76206605,2.53265934 5.76206605,4.67208791 L5.76206605,8.6043956 C5.76206605,8.82276923 5.59136325,9 5.38103302,9 C5.17070279,9 5,8.82276923 5,8.6043956 L5,4.67208791 C5,2.09591209 7.01871296,0 9.5,0 C11.981287,0 14,2.09591209 14,4.67208791 L14,8.6043956 C14,8.82276923 13.8300593,9 13.618967,9 Z" id="Shape" fill-rule="nonzero"></path>
                        </g>
                    </g>
                </g>
            </g>
        </g>
    </g>
</svg>