<?xml version="1.0" encoding="UTF-8"?>
<svg width="23px" height="22px" viewBox="0 0 23 22" version="1.1" xmlns="http://www.w3.org/2000/svg" xmlns:xlink="http://www.w3.org/1999/xlink">
    <!-- Generator: sketchtool 49.3 (51167) - http://www.bohemiancoding.com/sketch -->
    <title>D8C71746-B616-40FA-A88F-9402B930B62A</title>
    <desc>Created with sketchtool.</desc>
    <defs></defs>
    <g id="Symbols" stroke="none" stroke-width="1" fill="none" fill-rule="evenodd">
        <g id="Лайк_серый" fill="#232323" fill-rule="nonzero">
            <g id="003-like" transform="translate(0.000000, 1.000000)">
                <path d="M22.9606346,6.40164 C22.6249231,2.89296 20.0095577,0.34734 16.7364808,0.34734 C14.5559038,0.34734 12.5593269,1.4616 11.4358654,3.24744 C10.3225769,1.4385 8.40782692,0.34692 6.26219231,0.34692 C2.98955769,0.34692 0.37375,2.89254 0.0384807692,6.40122 C0.0119423077,6.5562 -0.0968653846,7.37184 0.233980769,8.70198 C0.710788462,10.62054 1.81213462,12.36564 3.41815385,13.74744 L11.4305577,20.65182 L19.5805192,13.74786 C21.1865385,12.36564 22.2878846,10.62096 22.7646923,8.70198 C23.0955385,7.37226 22.9867308,6.55662 22.9606346,6.40164 Z M21.9035192,8.50962 C21.4682885,10.26186 20.4593846,11.85828 18.9887115,13.12332 L11.4358654,19.52202 L4.01261538,13.125 C2.53928846,11.85744 1.53082692,10.26144 1.09515385,8.5092 C0.782,7.25046 0.910711538,6.5394 0.911153846,6.53478 L0.917788462,6.49236 C1.20528846,3.41838 3.45265385,1.18692 6.26219231,1.18692 C8.33528846,1.18692 10.16025,2.39652 11.0262885,4.34322 L11.4336538,5.26008 L11.8410192,4.34322 C12.6933462,2.42634 14.6147308,1.18734 16.7369231,1.18734 C19.5460192,1.18734 21.7938269,3.4188 22.0870769,6.53268 C22.0879615,6.5394 22.2166731,7.25088 21.9035192,8.50962 Z" id="Shape"></path>
            </g>
        </g>
    </g>
</svg>