<?xml version="1.0" encoding="UTF-8"?>
<svg width="18px" height="18px" viewBox="0 0 18 18" version="1.1" xmlns="http://www.w3.org/2000/svg" xmlns:xlink="http://www.w3.org/1999/xlink">
    <!-- Generator: sketchtool 49.3 (51167) - http://www.bohemiancoding.com/sketch -->
    <title>BD4F3D5F-46C0-4DDC-A889-F5F14D7357FE</title>
    <desc>Created with sketchtool.</desc>
    <defs></defs>
    <g id="Symbols" stroke="none" stroke-width="1" fill="none" fill-rule="evenodd">
        <g id="Отавить_отзыв" fill="#062294" fill-rule="nonzero">
            <g id="draw">
                <path d="M16.5708462,1.42869231 C14.9058462,-0.236538462 13.6564615,0.0133846154 13.6564615,0.0133846154 L7.82723077,5.84238462 L1.16515385,12.5042308 L0,18 L5.49507692,16.8343846 L12.1571538,10.1723077 L17.9863846,4.34376923 C17.9863846,4.344 18.2365385,3.09438462 16.5708462,1.42869231 Z M5.16807692,16.1736923 L3.29492308,16.5770769 C3.11376923,16.2385385 2.89638462,15.9004615 2.49761538,15.5019231 C2.09907692,15.1033846 1.76076923,14.886 1.42269231,14.7043846 L1.82653846,12.8314615 L2.36792308,12.2896154 C2.36792308,12.2896154 3.38746154,12.3099231 4.53807692,13.4614615 C5.68915385,14.6123077 5.70992308,15.6323077 5.70992308,15.6323077 L5.16807692,16.1736923 Z" id="Shape"></path>
            </g>
        </g>
    </g>
</svg>