<?xml version="1.0" encoding="UTF-8"?>
<svg width="18px" height="18px" viewBox="0 0 18 18" version="1.1" xmlns="http://www.w3.org/2000/svg" xmlns:xlink="http://www.w3.org/1999/xlink">
    <!-- Generator: sketchtool 49.3 (51167) - http://www.bohemiancoding.com/sketch -->
    <title>7402F028-8B74-43E7-B333-3E76084D05D3</title>
    <desc>Created with sketchtool.</desc>
    <defs></defs>
    <g id="Symbols" stroke="none" stroke-width="1" fill="none" fill-rule="evenodd">
        <g id="Информация" fill="#062294" fill-rule="nonzero">
            <g id="logo">
                <path d="M8.859,0 C3.96675,0 0,3.96675 0,8.859 C0,13.75125 3.96675,17.71875 8.859,17.71875 C13.75125,17.71875 17.71875,13.75125 17.71875,8.859 C17.71875,3.96675 13.75125,0 8.859,0 Z M10.70325,13.73025 C10.24725,13.91025 9.88425,14.04675 9.612,14.14125 C9.3405,14.23575 9.02475,14.283 8.6655,14.283 C8.1135,14.283 7.68375,14.148 7.37775,13.87875 C7.07175,13.6095 6.9195,13.26825 6.9195,12.8535 C6.9195,12.69225 6.93075,12.52725 6.95325,12.35925 C6.9765,12.19125 7.01325,12.00225 7.0635,11.79 L7.63425,9.774 C7.6845,9.5805 7.728,9.39675 7.7625,9.22575 C7.797,9.05325 7.8135,8.895 7.8135,8.751 C7.8135,8.4945 7.76025,8.3145 7.6545,8.21325 C7.54725,8.112 7.3455,8.0625 7.04475,8.0625 C6.89775,8.0625 6.74625,8.08425 6.591,8.13 C6.43725,8.17725 6.30375,8.22 6.19425,8.262 L6.345,7.641 C6.7185,7.48875 7.07625,7.35825 7.4175,7.25025 C7.75875,7.14075 8.08125,7.08675 8.385,7.08675 C8.93325,7.08675 9.35625,7.22025 9.654,7.48425 C9.95025,7.749 10.0995,8.09325 10.0995,8.51625 C10.0995,8.604 10.089,8.7585 10.06875,8.979 C10.0485,9.20025 10.01025,9.402 9.95475,9.58725 L9.387,11.59725 C9.3405,11.7585 9.29925,11.943 9.26175,12.14925 C9.225,12.3555 9.207,12.513 9.207,12.61875 C9.207,12.88575 9.26625,13.068 9.38625,13.16475 C9.50475,13.2615 9.7125,13.31025 10.0065,13.31025 C10.14525,13.31025 10.3005,13.2855 10.476,13.2375 C10.65,13.1895 10.776,13.14675 10.8555,13.11 L10.70325,13.73025 Z M10.60275,5.57175 C10.338,5.81775 10.01925,5.94075 9.6465,5.94075 C9.2745,5.94075 8.9535,5.81775 8.6865,5.57175 C8.421,5.32575 8.28675,5.0265 8.28675,4.677 C8.28675,4.32825 8.42175,4.02825 8.6865,3.78 C8.9535,3.531 9.2745,3.40725 9.6465,3.40725 C10.01925,3.40725 10.33875,3.531 10.60275,3.78 C10.8675,4.02825 11.00025,4.32825 11.00025,4.677 C11.00025,5.02725 10.8675,5.32575 10.60275,5.57175 Z" id="Shape"></path>
            </g>
        </g>
    </g>
</svg>