<?xml version="1.0" encoding="UTF-8"?>
<svg width="160px" height="65px" viewBox="0 0 160 65" version="1.1" xmlns="http://www.w3.org/2000/svg" xmlns:xlink="http://www.w3.org/1999/xlink">
    <!-- Generator: sketchtool 49.3 (51167) - http://www.bohemiancoding.com/sketch -->
    <title>A1F63D6E-A0A7-4832-8E1A-6F982B899117</title>
    <desc>Created with sketchtool.</desc>
    <defs>
        <linearGradient x1="0%" y1="0%" x2="50%" y2="81.1300223%" id="linearGradient-1">
            <stop stop-color="#4377EC" offset="0%"></stop>
            <stop stop-color="#062294" offset="100%"></stop>
        </linearGradient>
    </defs>
    <g id="Symbols" stroke="none" stroke-width="1" fill="none" fill-rule="evenodd">
        <g id="Шапка" transform="translate(-160.000000, -77.000000)">
            <g id="Лого+Реклама+Состояние" transform="translate(160.000000, 77.000000)">
                <g id="Логотип">
                    <g>
                        <g id="Rectangle" fill="url(#linearGradient-1)">
                            <rect x="0" y="0" width="160" height="65"></rect>
                        </g>
                        <path d="M31.2695312,23.3398438 C32.8867268,23.3398438 34.2851504,23.6523406 35.4648438,24.2773438 C37.1757898,25.1757857 38.2226543,26.7499887 38.6054688,29 L36.296875,29 C36.0156236,27.7421812 35.4335982,26.8261747 34.5507812,26.2519531 C33.6679643,25.6777315 32.5546942,25.390625 31.2109375,25.390625 C29.6171795,25.390625 28.2753961,25.9882753 27.1855469,27.1835938 C26.0956977,28.3789122 25.5507812,30.1601444 25.5507812,32.5273438 C25.5507812,34.574229 25.9999955,36.2402279 26.8984375,37.5253906 C27.7968795,38.8105533 29.2617086,39.453125 31.2929688,39.453125 C32.847664,39.453125 34.1347605,39.0019576 35.1542969,38.0996094 C36.1738332,37.1972611 36.6953124,35.7382913 36.71875,33.7226562 L31.328125,33.7226562 L31.328125,31.7890625 L38.8867188,31.7890625 L38.8867188,41 L37.3867188,41 L36.8242188,38.7851562 C36.0351523,39.6523481 35.3359405,40.2539046 34.7265625,40.5898438 C33.7031199,41.1679716 32.4023516,41.4570312 30.8242188,41.4570312 C28.7851461,41.4570312 27.0312573,40.7968816 25.5625,39.4765625 C23.9609295,37.8203042 23.1601562,35.5468895 23.1601562,32.65625 C23.1601562,29.7734231 23.9413984,27.4804773 25.5039062,25.7773438 C26.9882887,24.1523356 28.9101445,23.3398438 31.2695312,23.3398438 Z M54.3320312,33.9453125 L51.71875,26.3398438 L48.9414062,33.9453125 L54.3320312,33.9453125 Z M50.5,23.7851562 L53.1367188,23.7851562 L59.3828125,41 L56.828125,41 L55.0820312,35.84375 L48.2734375,35.84375 L46.4101562,41 L44.0195312,41 L50.5,23.7851562 Z M71.1132812,39.0078125 C71.9023477,39.0078125 72.5507787,38.9257821 73.0585938,38.7617188 C73.9648483,38.4570297 74.7070284,37.8710981 75.2851562,37.0039062 C75.7460961,36.3085903 76.078124,35.4179742 76.28125,34.3320312 C76.3984381,33.6835905 76.4570312,33.082034 76.4570312,32.5273438 C76.4570312,30.3945206 76.0332074,28.7382871 75.1855469,27.5585938 C74.3378864,26.3789004 72.9726657,25.7890625 71.0898438,25.7890625 L66.953125,25.7890625 L66.953125,39.0078125 L71.1132812,39.0078125 Z M64.609375,23.7851562 L71.5820312,23.7851562 C73.9492306,23.7851562 75.7851497,24.6249916 77.0898438,26.3046875 C78.2539121,27.8203201 78.8359375,29.7617069 78.8359375,32.1289062 C78.8359375,33.9570404 78.4921909,35.6093676 77.8046875,37.0859375 C76.5937439,39.6953255 74.5117335,41 71.5585938,41 L64.609375,41 L64.609375,23.7851562 Z M92.2773438,23.3398438 C93.8945393,23.3398438 95.2929629,23.6523406 96.4726562,24.2773438 C98.1836023,25.1757857 99.2304668,26.7499887 99.6132812,29 L97.3046875,29 C97.0234361,27.7421812 96.4414107,26.8261747 95.5585938,26.2519531 C94.6757768,25.6777315 93.5625067,25.390625 92.21875,25.390625 C90.624992,25.390625 89.2832086,25.9882753 88.1933594,27.1835938 C87.1035102,28.3789122 86.5585938,30.1601444 86.5585938,32.5273438 C86.5585938,34.574229 87.007808,36.2402279 87.90625,37.5253906 C88.804692,38.8105533 90.2695211,39.453125 92.3007812,39.453125 C93.8554765,39.453125 95.142573,39.0019576 96.1621094,38.0996094 C97.1816457,37.1972611 97.7031249,35.7382913 97.7265625,33.7226562 L92.3359375,33.7226562 L92.3359375,31.7890625 L99.8945312,31.7890625 L99.8945312,41 L98.3945312,41 L97.8320312,38.7851562 C97.0429648,39.6523481 96.343753,40.2539046 95.734375,40.5898438 C94.7109324,41.1679716 93.4101641,41.4570312 91.8320312,41.4570312 C89.7929586,41.4570312 88.0390698,40.7968816 86.5703125,39.4765625 C84.968742,37.8203042 84.1679688,35.5468895 84.1679688,32.65625 C84.1679688,29.7734231 84.9492109,27.4804773 86.5117188,25.7773438 C87.9961012,24.1523356 89.917957,23.3398438 92.2773438,23.3398438 Z M106.726563,23.7851562 L119.277344,23.7851562 L119.277344,25.8945312 L109,25.8945312 L109,31.1210938 L118.503906,31.1210938 L118.503906,33.1132812 L109,33.1132812 L109,38.9492188 L119.453125,38.9492188 L119.453125,41 L106.726563,41 L106.726563,23.7851562 Z M138.039062,23.7851562 L138.039062,25.8359375 L132.238281,25.8359375 L132.238281,41 L129.871094,41 L129.871094,25.8359375 L124.070312,25.8359375 L124.070312,23.7851562 L138.039062,23.7851562 Z" id="gadget" fill="#FFFFFF"></path>
                    </g>
                </g>
            </g>
        </g>
    </g>
</svg>