<?xml version="1.0" encoding="UTF-8"?>
<svg width="21px" height="25px" viewBox="0 0 21 25" version="1.1" xmlns="http://www.w3.org/2000/svg" xmlns:xlink="http://www.w3.org/1999/xlink">
    <!-- Generator: sketchtool 49.3 (51167) - http://www.bohemiancoding.com/sketch -->
    <title>69B38C1D-C41F-49B2-847E-B6F8E5D45FD7</title>
    <desc>Created with sketchtool.</desc>
    <defs></defs>
    <g id="Symbols" stroke="none" stroke-width="1" fill="none" fill-rule="evenodd">
        <g id="Пользователь_серый" fill="#232323" fill-rule="nonzero">
            <g id="002-social">
                <path d="M14.7256289,14.6590694 L14.6619497,14.630205 C14.5099057,14.5608044 14.356761,14.495347 14.2006289,14.4340694 C14.0303459,14.3656151 13.8575472,14.3022871 13.6822327,14.2429811 C13.5437893,14.1973975 13.4043239,14.1548107 13.2633648,14.1132492 C13.0486635,14.0509464 12.8318396,13.9946372 12.6085692,13.9449527 C12.532783,13.9292587 12.4555031,13.9140379 12.378695,13.9003155 L12.3261792,13.890142 C12.1943396,13.8642744 12.0619497,13.8414826 11.928066,13.8216877 L11.8897013,13.8156151 C11.8882075,13.8156151 11.8871855,13.8145899 11.8856918,13.8145899 L11.847327,13.8095426 C11.7361635,13.7928233 11.6255503,13.7771293 11.5102987,13.763959 L11.118239,13.7315457 C10.6362421,13.6996057 10.139544,13.7006309 9.66312893,13.7355678 L9.52421384,13.7472397 L9.45951258,13.7522871 L9.29732704,13.7669558 C9.14827044,13.7826498 9.00023585,13.80347 8.85220126,13.8272871 L8.80872642,13.8333596 C8.7077044,13.8500789 8.60660377,13.8688486 8.50707547,13.8876183 C8.39646226,13.9074132 8.28726415,13.9291798 8.17814465,13.9529968 C7.96698113,14.0006309 7.7572327,14.0548896 7.55416667,14.1141956 C7.39245283,14.1608044 7.23286164,14.2119874 7.08278302,14.2637224 L6.97869497,14.3012618 C6.66037736,14.4142744 6.34410377,14.5440063 6.03789308,14.6864353 L5.95605346,14.7254732 L5.95455975,14.7275237 C2.37382075,16.4467666 0.0647798742,20.1097792 0.0647798742,24.0844637 C0.0647798742,24.1757098 0.0708333333,24.2653785 0.0764150943,24.3555994 L0.10322327,24.9861199 L20.7154088,24.9861199 L20.7431604,24.3626972 C20.7492138,24.2704259 20.7547956,24.1787066 20.7547956,24.0844637 C20.7547956,20.0463722 18.3897013,16.3509464 14.7256289,14.6590694 Z M1.07562893,23.9723975 C1.11910377,20.4037066 3.22248428,17.1299685 6.42830189,15.622082 L6.53136792,15.5815457 L6.54347484,15.5698738 C6.79457547,15.4548107 7.05377358,15.3499211 7.31650943,15.2571767 L7.39984277,15.2272871 C7.54284591,15.1776025 7.68529874,15.1320189 7.83333333,15.0899054 C8.0177673,15.0356467 8.20573899,14.9869874 8.39418239,14.9444795 C8.49166667,14.9237382 8.58922956,14.9039432 8.68977987,14.8851735 C8.76957547,14.8705047 8.84889937,14.8552839 8.92924528,14.8425868 L8.96863208,14.835489 C9.11312893,14.8126972 9.2581761,14.791877 9.40267296,14.776183 L9.73309748,14.7473186 C10.165566,14.7153785 10.5794025,14.7108044 11.0805818,14.7473186 L11.4018868,14.7742114 C11.4812107,14.7833596 11.5605346,14.7940063 11.6570755,14.8076498 L11.7727987,14.8243691 C11.8935535,14.8421136 12.0143082,14.8628549 12.1355346,14.8857256 L12.1921384,14.8963722 C12.2603774,14.9090694 12.328066,14.9222397 12.392217,14.9358833 C12.5912736,14.9794953 12.7867925,15.0311514 12.9808176,15.0874606 C13.1091195,15.125 13.236478,15.1634858 13.3607704,15.2050473 C13.5183962,15.2577287 13.6740566,15.3150631 13.8281447,15.3763407 C13.9761792,15.4346215 14.1221698,15.4970032 14.2666667,15.5634069 L14.2919025,15.5750789 C17.5705189,17.0839905 19.6996069,20.3683754 19.7430818,23.97153 L1.07562893,23.97153 L1.07562893,23.9723975 Z M7.91226415,12.4289432 C7.98805031,12.4608833 8.0663522,12.4887224 8.14465409,12.5166404 L8.30888365,12.5764196 C8.37201258,12.6007098 8.43569182,12.6246057 8.50039308,12.6448738 C9.10267296,12.8349369 9.7327044,12.9327287 10.3733491,12.9378549 L10.4243711,12.9388801 C10.6441824,12.9388801 10.8644654,12.9272082 11.0756289,12.9054416 C11.1483491,12.8983438 11.2191038,12.8866719 11.2903302,12.8745268 L11.4485063,12.8507098 C11.5374214,12.8390379 11.6263365,12.8258675 11.7193396,12.8076498 C11.7830189,12.7944795 11.8446541,12.7777603 11.9062893,12.761041 L12.0790881,12.7169558 C12.1644654,12.6962145 12.2498428,12.6753943 12.3342767,12.6490536 C12.3867925,12.6323344 12.4383648,12.6130915 12.4893868,12.5937697 L12.6283019,12.543612 C12.7273585,12.5091483 12.8273585,12.4736593 12.9274371,12.4316246 C12.9663522,12.4149054 13.0042453,12.3966877 13.0415881,12.3783912 L13.0865566,12.3560726 C13.2235063,12.2947161 13.3599057,12.2318612 13.495283,12.1589117 L13.5831761,12.1062303 C13.7347484,12.0200315 13.8858491,11.930836 14.0389151,11.8259464 C14.118239,11.7722397 14.1940252,11.7119085 14.2687893,11.6521293 L14.5275157,11.4503943 C16.0150157,10.2152208 16.8698899,8.40268139 16.8698899,6.5227918 L16.872956,6.46908517 C16.872956,2.90189274 13.9798742,0.000157728707 10.4238994,0.000157728707 C7.02963836,0.000157728707 4.20573899,2.6626183 3.99504717,6.06159306 L3.98946541,6.14574132 C3.98136792,6.25268139 3.97484277,6.35962145 3.97484277,6.46908517 C3.97382075,9.07460568 5.51941824,11.4137224 7.91226415,12.4289432 Z M4.99693396,6.21600946 L5.00298742,6.12476341 C5.18081761,3.25851735 7.5615566,1.0137224 10.4233491,1.0137224 C13.4225629,1.0137224 15.8618711,3.46080442 15.8644654,6.4227918 L15.8613994,6.47602524 C15.8593553,8.09897476 15.1378931,9.62712934 13.8772799,10.6768139 L13.6372642,10.8603312 C13.5837264,10.9039432 13.5296384,10.9474763 13.4624214,10.994164 C13.341195,11.0768139 13.2128145,11.1512618 13.0824686,11.2253155 L13.0102201,11.2694006 C12.9011006,11.3282334 12.7863994,11.3803628 12.6671384,11.4335962 L12.5332547,11.4985016 C12.4564465,11.5304416 12.3756289,11.5582808 12.2957547,11.5861987 L12.1290094,11.64653 C12.0966981,11.6586751 12.0638365,11.6718454 12.0319969,11.6814669 C11.9698899,11.7007098 11.9062107,11.7154574 11.8430031,11.7311514 L11.6414308,11.7828864 C11.597956,11.7945584 11.5550314,11.8067035 11.5166667,11.8148265 C11.4494497,11.8279968 11.380739,11.8371451 11.3125786,11.8467666 L11.1205975,11.8756309 C11.0741352,11.8837539 11.0275943,11.891877 10.9755503,11.8969243 C10.8073113,11.9146688 10.6380503,11.9242902 10.4662736,11.9257886 L10.4187893,11.9253155 L10.4177673,11.9253155 C9.86454403,11.9248423 9.32138365,11.8421924 8.80196541,11.6790221 C8.75699686,11.6648265 8.71305031,11.647082 8.66910377,11.6303628 L8.47916667,11.5609621 C8.42004717,11.540142 8.36147799,11.5198738 8.30487421,11.4960568 C6.28789308,10.6402997 4.98427673,8.66656151 4.98427673,6.46940063 C4.98427673,6.38375394 4.9908805,6.29960568 4.99693396,6.21600946 Z" id="Shape"></path>
            </g>
        </g>
    </g>
</svg>